<mxfile host="app.diagrams.net" modified="2020-05-17T02:32:58.054Z" agent="5.0 (Windows NT 10.0; Win64; x64) AppleWebKit/537.36 (KHTML, like Gecko) Chrome/81.0.4044.138 Safari/537.36" etag="A_n-IxFO4FCEy_wPszfq" version="13.1.2" type="github" pages="3">
  <diagram id="4RUEqt_GdcB8Mhm-auXr" name="Page-1">
    <mxGraphModel dx="1422" dy="712" grid="1" gridSize="10" guides="1" tooltips="1" connect="1" arrows="1" fold="1" page="1" pageScale="1" pageWidth="1100" pageHeight="1700" math="0" shadow="0">
      <root>
        <mxCell id="0" />
        <mxCell id="1" parent="0" />
        <mxCell id="HChXWUK6-BIIOKfi2eoP-1" style="edgeStyle=orthogonalEdgeStyle;rounded=0;html=1;exitX=1;exitY=0.5;entryX=0;entryY=0.5;jettySize=auto;orthogonalLoop=1;" parent="1" source="HChXWUK6-BIIOKfi2eoP-2" target="HChXWUK6-BIIOKfi2eoP-12" edge="1">
          <mxGeometry relative="1" as="geometry" />
        </mxCell>
        <mxCell id="HChXWUK6-BIIOKfi2eoP-2" value="Server" style="rounded=0;whiteSpace=wrap;html=1;fillColor=none;" parent="1" vertex="1">
          <mxGeometry x="320" y="650" width="120" height="60" as="geometry" />
        </mxCell>
        <mxCell id="HChXWUK6-BIIOKfi2eoP-3" style="edgeStyle=orthogonalEdgeStyle;rounded=0;html=1;exitX=0.5;exitY=0;entryX=0.575;entryY=1;entryPerimeter=0;jettySize=auto;orthogonalLoop=1;" parent="1" source="HChXWUK6-BIIOKfi2eoP-4" target="HChXWUK6-BIIOKfi2eoP-2" edge="1">
          <mxGeometry relative="1" as="geometry">
            <Array as="points">
              <mxPoint x="389" y="750" />
            </Array>
          </mxGeometry>
        </mxCell>
        <mxCell id="HChXWUK6-BIIOKfi2eoP-4" value="Client" style="rounded=0;whiteSpace=wrap;html=1;fillColor=none;" parent="1" vertex="1">
          <mxGeometry x="130" y="750" width="640" height="40" as="geometry" />
        </mxCell>
        <mxCell id="HChXWUK6-BIIOKfi2eoP-5" style="edgeStyle=orthogonalEdgeStyle;rounded=0;html=1;exitX=0.5;exitY=0;jettySize=auto;orthogonalLoop=1;" parent="1" source="HChXWUK6-BIIOKfi2eoP-6" target="HChXWUK6-BIIOKfi2eoP-8" edge="1">
          <mxGeometry relative="1" as="geometry" />
        </mxCell>
        <mxCell id="HChXWUK6-BIIOKfi2eoP-6" value="Controller" style="rounded=0;whiteSpace=wrap;html=1;fillColor=none;" parent="1" vertex="1">
          <mxGeometry x="140" y="560" width="120" height="60" as="geometry" />
        </mxCell>
        <mxCell id="HChXWUK6-BIIOKfi2eoP-7" style="edgeStyle=orthogonalEdgeStyle;rounded=0;html=1;exitX=0.5;exitY=0;jettySize=auto;orthogonalLoop=1;" parent="1" source="HChXWUK6-BIIOKfi2eoP-8" target="HChXWUK6-BIIOKfi2eoP-9" edge="1">
          <mxGeometry relative="1" as="geometry" />
        </mxCell>
        <mxCell id="HChXWUK6-BIIOKfi2eoP-8" value="DAO" style="rounded=0;whiteSpace=wrap;html=1;fillColor=none;" parent="1" vertex="1">
          <mxGeometry x="140" y="460" width="120" height="60" as="geometry" />
        </mxCell>
        <mxCell id="HChXWUK6-BIIOKfi2eoP-9" value="Model" style="rounded=0;whiteSpace=wrap;html=1;fillColor=none;" parent="1" vertex="1">
          <mxGeometry x="140" y="360" width="120" height="60" as="geometry" />
        </mxCell>
        <mxCell id="HChXWUK6-BIIOKfi2eoP-10" value="ConnHelper" style="rounded=0;whiteSpace=wrap;html=1;fillColor=none;" parent="1" vertex="1">
          <mxGeometry x="480" y="560" width="120" height="60" as="geometry" />
        </mxCell>
        <mxCell id="HChXWUK6-BIIOKfi2eoP-11" style="edgeStyle=orthogonalEdgeStyle;rounded=0;html=1;exitX=0.5;exitY=0;entryX=0.5;entryY=1;jettySize=auto;orthogonalLoop=1;" parent="1" source="HChXWUK6-BIIOKfi2eoP-12" target="HChXWUK6-BIIOKfi2eoP-10" edge="1">
          <mxGeometry relative="1" as="geometry" />
        </mxCell>
        <mxCell id="HChXWUK6-BIIOKfi2eoP-12" value="ClientInstance" style="rounded=0;whiteSpace=wrap;html=1;fillColor=none;" parent="1" vertex="1">
          <mxGeometry x="480" y="650" width="120" height="60" as="geometry" />
        </mxCell>
        <mxCell id="HChXWUK6-BIIOKfi2eoP-13" style="edgeStyle=orthogonalEdgeStyle;rounded=0;html=1;exitX=0;exitY=0.5;jettySize=auto;orthogonalLoop=1;" parent="1" source="HChXWUK6-BIIOKfi2eoP-14" target="HChXWUK6-BIIOKfi2eoP-12" edge="1">
          <mxGeometry relative="1" as="geometry" />
        </mxCell>
        <mxCell id="HChXWUK6-BIIOKfi2eoP-14" value="Message" style="rounded=0;whiteSpace=wrap;html=1;fillColor=none;" parent="1" vertex="1">
          <mxGeometry x="645" y="650" width="120" height="60" as="geometry" />
        </mxCell>
        <mxCell id="HChXWUK6-BIIOKfi2eoP-24" style="edgeStyle=orthogonalEdgeStyle;rounded=0;html=1;exitX=1;exitY=0.5;jettySize=auto;orthogonalLoop=1;" parent="1" source="HChXWUK6-BIIOKfi2eoP-26" target="HChXWUK6-BIIOKfi2eoP-2" edge="1">
          <mxGeometry relative="1" as="geometry" />
        </mxCell>
        <mxCell id="HChXWUK6-BIIOKfi2eoP-25" style="edgeStyle=orthogonalEdgeStyle;rounded=0;html=1;exitX=0.5;exitY=0;entryX=0.5;entryY=1;jettySize=auto;orthogonalLoop=1;" parent="1" source="HChXWUK6-BIIOKfi2eoP-26" target="HChXWUK6-BIIOKfi2eoP-6" edge="1">
          <mxGeometry relative="1" as="geometry" />
        </mxCell>
        <mxCell id="HChXWUK6-BIIOKfi2eoP-26" value="ControllerManager" style="html=1;fillColor=none;" parent="1" vertex="1">
          <mxGeometry x="142.5" y="655" width="115" height="50" as="geometry" />
        </mxCell>
      </root>
    </mxGraphModel>
  </diagram>
  <diagram id="PHLV82YEqE6mfF6TIl8F" name="Page-2">
    <mxGraphModel dx="1422" dy="712" grid="1" gridSize="10" guides="1" tooltips="1" connect="1" arrows="1" fold="1" page="1" pageScale="1" pageWidth="827" pageHeight="1169" math="0" shadow="0">
      <root>
        <mxCell id="8SFpmMK_OErXMNxugdqm-0" />
        <mxCell id="8SFpmMK_OErXMNxugdqm-1" parent="8SFpmMK_OErXMNxugdqm-0" />
        <mxCell id="kLxxGYSav_2v4lLc6G8P-0" value="数据格式：RequestCode：ActionCode：数据" style="html=1;verticalAlign=bottom;startArrow=circle;startFill=1;endArrow=open;startSize=6;endSize=8;" parent="8SFpmMK_OErXMNxugdqm-1" edge="1">
          <mxGeometry width="80" relative="1" as="geometry">
            <mxPoint x="240" y="256" as="sourcePoint" />
            <mxPoint x="574.5" y="256" as="targetPoint" />
          </mxGeometry>
        </mxCell>
        <mxCell id="kLxxGYSav_2v4lLc6G8P-1" value="客户端" style="text;html=1;align=center;fontStyle=1;verticalAlign=middle;spacingLeft=3;spacingRight=3;strokeColor=none;rotatable=0;points=[[0,0.5],[1,0.5]];portConstraint=eastwest;fillColor=none;" parent="8SFpmMK_OErXMNxugdqm-1" vertex="1">
          <mxGeometry x="145" y="197" width="80" height="26" as="geometry" />
        </mxCell>
        <mxCell id="kLxxGYSav_2v4lLc6G8P-2" value="" style="html=1;verticalAlign=bottom;endArrow=open;dashed=1;endSize=8;exitX=0.018;exitY=0.845;exitPerimeter=0;exitDx=0;exitDy=0;" parent="8SFpmMK_OErXMNxugdqm-1" source="kLxxGYSav_2v4lLc6G8P-6" edge="1">
          <mxGeometry relative="1" as="geometry">
            <mxPoint x="700" y="466" as="sourcePoint" />
            <mxPoint x="249.5" y="457.0160000000001" as="targetPoint" />
            <Array as="points">
              <mxPoint x="560" y="457" />
              <mxPoint x="540" y="457" />
            </Array>
          </mxGeometry>
        </mxCell>
        <mxCell id="kLxxGYSav_2v4lLc6G8P-3" value="数据格式：ActionCode:数据" style="text;html=1;resizable=0;points=[];align=center;verticalAlign=middle;labelBackgroundColor=#ffffff;" parent="kLxxGYSav_2v4lLc6G8P-2" vertex="1" connectable="0">
          <mxGeometry x="0.1292" y="4" relative="1" as="geometry">
            <mxPoint as="offset" />
          </mxGeometry>
        </mxCell>
        <mxCell id="kLxxGYSav_2v4lLc6G8P-4" value="请求" style="text;html=1;align=center;fontStyle=1;verticalAlign=middle;spacingLeft=3;spacingRight=3;strokeColor=none;rotatable=0;points=[[0,0.5],[1,0.5]];portConstraint=eastwest;fillColor=none;" parent="8SFpmMK_OErXMNxugdqm-1" vertex="1">
          <mxGeometry x="360" y="256" width="80" height="26" as="geometry" />
        </mxCell>
        <mxCell id="kLxxGYSav_2v4lLc6G8P-5" value="SendRequest&lt;br&gt;&lt;br&gt;&lt;br&gt;&lt;br&gt;&lt;br&gt;&lt;br&gt;&lt;br&gt;Request&lt;br&gt;&lt;br&gt;&lt;br&gt;&lt;br&gt;&lt;br&gt;&lt;br&gt;&lt;br&gt;&lt;div&gt;OnResponse&lt;/div&gt;" style="html=1;fillColor=none;" parent="8SFpmMK_OErXMNxugdqm-1" vertex="1">
          <mxGeometry x="120" y="223" width="130" height="274" as="geometry" />
        </mxCell>
        <mxCell id="kLxxGYSav_2v4lLc6G8P-6" value="Controller" style="html=1;fillColor=none;" parent="8SFpmMK_OErXMNxugdqm-1" vertex="1">
          <mxGeometry x="575" y="223" width="110" height="277" as="geometry" />
        </mxCell>
        <mxCell id="pgeZ1qh1c-qSul8FaZuj-0" value="服务器端" style="text;html=1;align=center;fontStyle=1;verticalAlign=middle;spacingLeft=3;spacingRight=3;strokeColor=none;rotatable=0;points=[[0,0.5],[1,0.5]];portConstraint=eastwest;fillColor=none;" vertex="1" parent="8SFpmMK_OErXMNxugdqm-1">
          <mxGeometry x="590" y="197" width="80" height="26" as="geometry" />
        </mxCell>
        <mxCell id="pgeZ1qh1c-qSul8FaZuj-1" value="&lt;b&gt;回应&lt;/b&gt;" style="text;html=1;align=center;verticalAlign=middle;resizable=0;points=[];autosize=1;" vertex="1" parent="8SFpmMK_OErXMNxugdqm-1">
          <mxGeometry x="380" y="438" width="40" height="20" as="geometry" />
        </mxCell>
      </root>
    </mxGraphModel>
  </diagram>
  <diagram id="gqkWwFnmdCQ8DKCqlp8h" name="Page-3">
    <mxGraphModel dx="1422" dy="-457" grid="1" gridSize="10" guides="1" tooltips="1" connect="1" arrows="1" fold="1" page="1" pageScale="1" pageWidth="827" pageHeight="1169" math="0" shadow="0">
      <root>
        <mxCell id="y5YlNd9tEdmhMvRza_Jp-0" />
        <mxCell id="y5YlNd9tEdmhMvRza_Jp-1" parent="y5YlNd9tEdmhMvRza_Jp-0" />
        <mxCell id="L7R0aTKZRIjChB-JzjqM-4" style="edgeStyle=orthogonalEdgeStyle;rounded=0;orthogonalLoop=1;jettySize=auto;html=1;" edge="1" parent="y5YlNd9tEdmhMvRza_Jp-1" source="y5YlNd9tEdmhMvRza_Jp-2" target="L7R0aTKZRIjChB-JzjqM-3">
          <mxGeometry relative="1" as="geometry" />
        </mxCell>
        <mxCell id="y5YlNd9tEdmhMvRza_Jp-2" value="UserController" style="html=1;fillColor=none;" parent="y5YlNd9tEdmhMvRza_Jp-1" vertex="1">
          <mxGeometry x="560" y="1375" width="110" height="50" as="geometry" />
        </mxCell>
        <mxCell id="RY0LAXf74ljOxD4rDnXu-0" style="edgeStyle=orthogonalEdgeStyle;rounded=0;orthogonalLoop=1;jettySize=auto;html=1;entryX=0;entryY=0.5;entryDx=0;entryDy=0;" edge="1" parent="y5YlNd9tEdmhMvRza_Jp-1" source="y5YlNd9tEdmhMvRza_Jp-4" target="y5YlNd9tEdmhMvRza_Jp-2">
          <mxGeometry relative="1" as="geometry">
            <mxPoint x="510" y="1400" as="targetPoint" />
          </mxGeometry>
        </mxCell>
        <mxCell id="y5YlNd9tEdmhMvRza_Jp-4" value="LoginRequest" style="rounded=0;whiteSpace=wrap;html=1;fillColor=none;" parent="y5YlNd9tEdmhMvRza_Jp-1" vertex="1">
          <mxGeometry x="70" y="1370" width="120" height="60" as="geometry" />
        </mxCell>
        <mxCell id="L7R0aTKZRIjChB-JzjqM-1" value="&lt;!--StartFragment--&gt;&lt;span style=&quot;color: rgb(0, 0, 0); font-family: Helvetica; font-size: 11px; font-style: normal; font-variant-ligatures: normal; font-variant-caps: normal; font-weight: 400; letter-spacing: normal; orphans: 2; text-align: center; text-indent: 0px; text-transform: none; widows: 2; word-spacing: 0px; -webkit-text-stroke-width: 0px; background-color: rgb(255, 255, 255); text-decoration-style: initial; text-decoration-color: initial; float: none; display: inline !important;&quot;&gt;数据格式：RequestCode：ActionCode：数据&lt;/span&gt;&lt;!--EndFragment--&gt;" style="text;whiteSpace=wrap;html=1;" vertex="1" parent="y5YlNd9tEdmhMvRza_Jp-1">
          <mxGeometry x="220" y="1370" width="270" height="30" as="geometry" />
        </mxCell>
        <mxCell id="L7R0aTKZRIjChB-JzjqM-2" value="&lt;span style=&quot;color: rgb(0 , 0 , 0) ; font-family: &amp;#34;helvetica&amp;#34; ; font-size: 11px ; font-style: normal ; font-weight: 400 ; letter-spacing: normal ; text-align: center ; text-indent: 0px ; text-transform: none ; word-spacing: 0px ; background-color: rgb(255 , 255 , 255) ; float: none ; display: inline&quot;&gt;数据格式：LoginRequest：Login：username,password&lt;/span&gt;" style="text;whiteSpace=wrap;html=1;" vertex="1" parent="y5YlNd9tEdmhMvRza_Jp-1">
          <mxGeometry x="220" y="1400" width="330" height="30" as="geometry" />
        </mxCell>
        <mxCell id="L7R0aTKZRIjChB-JzjqM-6" style="edgeStyle=orthogonalEdgeStyle;rounded=0;orthogonalLoop=1;jettySize=auto;html=1;" edge="1" parent="y5YlNd9tEdmhMvRza_Jp-1" source="L7R0aTKZRIjChB-JzjqM-3" target="L7R0aTKZRIjChB-JzjqM-5">
          <mxGeometry relative="1" as="geometry" />
        </mxCell>
        <mxCell id="L7R0aTKZRIjChB-JzjqM-10" value="" style="edgeStyle=orthogonalEdgeStyle;rounded=0;orthogonalLoop=1;jettySize=auto;html=1;" edge="1" parent="y5YlNd9tEdmhMvRza_Jp-1" source="L7R0aTKZRIjChB-JzjqM-3" target="L7R0aTKZRIjChB-JzjqM-9">
          <mxGeometry relative="1" as="geometry" />
        </mxCell>
        <mxCell id="vi66ja-EFHFQC2vIEx1H-2" style="edgeStyle=orthogonalEdgeStyle;rounded=0;orthogonalLoop=1;jettySize=auto;html=1;entryX=0.5;entryY=1;entryDx=0;entryDy=0;" edge="1" parent="y5YlNd9tEdmhMvRza_Jp-1" source="L7R0aTKZRIjChB-JzjqM-3" target="y5YlNd9tEdmhMvRza_Jp-4">
          <mxGeometry relative="1" as="geometry">
            <Array as="points">
              <mxPoint x="710" y="1325" />
              <mxPoint x="710" y="1460" />
              <mxPoint x="130" y="1460" />
            </Array>
          </mxGeometry>
        </mxCell>
        <mxCell id="L7R0aTKZRIjChB-JzjqM-3" value="UserDAO&lt;span style=&quot;color: rgba(0 , 0 , 0 , 0) ; font-family: monospace ; font-size: 0px&quot;&gt;%3CmxGraphModel%3E%3Croot%3E%3CmxCell%20id%3D%220%22%2F%3E%3CmxCell%20id%3D%221%22%20parent%3D%220%22%2F%3E%3CmxCell%20id%3D%222%22%20value%3D%22UserController%22%20style%3D%22html%3D1%3BfillColor%3Dnone%3B%22%20vertex%3D%221%22%20parent%3D%221%22%3E%3CmxGeometry%20x%3D%22560%22%20y%3D%221375%22%20width%3D%22110%22%20height%3D%2250%22%20as%3D%22geometry%22%2F%3E%3C%2FmxCell%3E%3C%2Froot%3E%3C%2FmxGraphModel%3E&lt;/span&gt;" style="html=1;fillColor=none;" vertex="1" parent="y5YlNd9tEdmhMvRza_Jp-1">
          <mxGeometry x="560" y="1300" width="110" height="50" as="geometry" />
        </mxCell>
        <mxCell id="ih4tYVQWPDNbcN09xQ4j-2" style="edgeStyle=orthogonalEdgeStyle;rounded=0;orthogonalLoop=1;jettySize=auto;html=1;entryX=0.5;entryY=0;entryDx=0;entryDy=0;" edge="1" parent="y5YlNd9tEdmhMvRza_Jp-1" source="L7R0aTKZRIjChB-JzjqM-9" target="y5YlNd9tEdmhMvRza_Jp-4">
          <mxGeometry relative="1" as="geometry" />
        </mxCell>
        <mxCell id="L7R0aTKZRIjChB-JzjqM-9" value="Model：User" style="html=1;fillColor=none;" vertex="1" parent="y5YlNd9tEdmhMvRza_Jp-1">
          <mxGeometry x="315" y="1300" width="110" height="50" as="geometry" />
        </mxCell>
        <mxCell id="L7R0aTKZRIjChB-JzjqM-5" value="数据库" style="html=1;fillColor=none;" vertex="1" parent="y5YlNd9tEdmhMvRza_Jp-1">
          <mxGeometry x="70" y="1220" width="640" height="40" as="geometry" />
        </mxCell>
        <mxCell id="ih4tYVQWPDNbcN09xQ4j-1" value="密码正确" style="text;html=1;align=center;verticalAlign=middle;resizable=0;points=[];autosize=1;" vertex="1" parent="y5YlNd9tEdmhMvRza_Jp-1">
          <mxGeometry x="470" y="1309" width="60" height="20" as="geometry" />
        </mxCell>
        <mxCell id="vi66ja-EFHFQC2vIEx1H-0" value="数据格式：ActionCode:数据" style="text;html=1;resizable=0;points=[];align=center;verticalAlign=middle;labelBackgroundColor=#ffffff;" vertex="1" connectable="0" parent="y5YlNd9tEdmhMvRza_Jp-1">
          <mxGeometry x="220.00034494493755" y="1308.9981525516123" as="geometry">
            <mxPoint as="offset" />
          </mxGeometry>
        </mxCell>
        <mxCell id="vi66ja-EFHFQC2vIEx1H-1" value="数据格式：Login:Success" style="text;html=1;resizable=0;points=[];align=center;verticalAlign=middle;labelBackgroundColor=#ffffff;" vertex="1" connectable="0" parent="y5YlNd9tEdmhMvRza_Jp-1">
          <mxGeometry x="220.00034494493755" y="1339.9981525516123" as="geometry">
            <mxPoint as="offset" />
          </mxGeometry>
        </mxCell>
        <mxCell id="vi66ja-EFHFQC2vIEx1H-3" value="数据格式：ActionCode:数据" style="text;html=1;resizable=0;points=[];align=center;verticalAlign=middle;labelBackgroundColor=#ffffff;" vertex="1" connectable="0" parent="y5YlNd9tEdmhMvRza_Jp-1">
          <mxGeometry x="400.0003449449375" y="1449.9981525516123" as="geometry">
            <mxPoint as="offset" />
          </mxGeometry>
        </mxCell>
        <mxCell id="vi66ja-EFHFQC2vIEx1H-4" value="数据格式：Login:Fail" style="text;html=1;resizable=0;points=[];align=center;verticalAlign=middle;labelBackgroundColor=#ffffff;" vertex="1" connectable="0" parent="y5YlNd9tEdmhMvRza_Jp-1">
          <mxGeometry x="400.0003449449375" y="1469.9981525516123" as="geometry">
            <mxPoint as="offset" />
          </mxGeometry>
        </mxCell>
        <mxCell id="vi66ja-EFHFQC2vIEx1H-5" value="密码错误" style="text;html=1;align=center;verticalAlign=middle;resizable=0;points=[];autosize=1;" vertex="1" parent="y5YlNd9tEdmhMvRza_Jp-1">
          <mxGeometry x="640" y="1460" width="60" height="20" as="geometry" />
        </mxCell>
      </root>
    </mxGraphModel>
  </diagram>
</mxfile>
